<svg id="visual" viewBox="0 0 900 600" width="900" height="600" xmlns="http://www.w3.org/2000/svg" xmlns:xlink="http://www.w3.org/1999/xlink" version="1.1"><rect x="0" y="0" width="900" height="600" fill="#001220"></rect><defs><linearGradient id="grad1_0" x1="33.3%" y1="0%" x2="100%" y2="100%"><stop offset="20%" stop-color="#001220" stop-opacity="1"></stop><stop offset="80%" stop-color="#001220" stop-opacity="1"></stop></linearGradient></defs><defs><linearGradient id="grad2_0" x1="0%" y1="0%" x2="66.7%" y2="100%"><stop offset="20%" stop-color="#001220" stop-opacity="1"></stop><stop offset="80%" stop-color="#001220" stop-opacity="1"></stop></linearGradient></defs><g transform="translate(900, 0)"><path d="M0 162.2C-20.8 151.2 -41.7 140.2 -51.3 123.8C-60.9 107.4 -59.2 85.7 -77.1 77.1C-95 68.4 -132.4 72.8 -149.9 62.1C-167.4 51.4 -164.8 25.7 -162.2 0L0 0Z" fill="#0066FF"></path></g><g transform="translate(0, 600)"><path d="M0 -162.2C17.4 -151.1 34.8 -140 55.5 -134C76.2 -127.9 100.3 -126.9 114.7 -114.7C129.2 -102.5 134.1 -79.2 140.4 -58.2C146.8 -37.2 154.5 -18.6 162.2 0L0 0Z" fill="#0066FF"></path></g></svg>